<?xml version="1.0" encoding="UTF-8" standalone="no"?>
<!-- Created with Inkscape (http://www.inkscape.org/) -->

<svg
   width="58.810307mm"
   height="41.713139mm"
   viewBox="0 0 58.810307 41.713139"
   version="1.1"
   id="svg1"
   inkscape:version="1.4 (e7c3feb100, 2024-10-09)"
   sodipodi:docname="credits.svg"
   inkscape:export-filename="credits.png"
   inkscape:export-xdpi="96"
   inkscape:export-ydpi="96"
   xmlns:inkscape="http://www.inkscape.org/namespaces/inkscape"
   xmlns:sodipodi="http://sodipodi.sourceforge.net/DTD/sodipodi-0.dtd"
   xmlns="http://www.w3.org/2000/svg"
   xmlns:svg="http://www.w3.org/2000/svg">
  <sodipodi:namedview
     id="namedview1"
     pagecolor="#ffffff"
     bordercolor="#000000"
     borderopacity="0.25"
     inkscape:showpageshadow="2"
     inkscape:pageopacity="0.0"
     inkscape:pagecheckerboard="0"
     inkscape:deskcolor="#d1d1d1"
     inkscape:document-units="mm"
     inkscape:zoom="2.9469416"
     inkscape:cx="146.08365"
     inkscape:cy="80.252692"
     inkscape:window-width="1912"
     inkscape:window-height="1034"
     inkscape:window-x="0"
     inkscape:window-y="0"
     inkscape:window-maximized="1"
     inkscape:current-layer="layer1" />
  <defs
     id="defs1" />
  <g
     inkscape:label="Layer 1"
     inkscape:groupmode="layer"
     id="layer1"
     transform="translate(-45.531105,-101.2646)">
    <path
       style="font-size:23.9165px;font-family:'Monster Twenty';-inkscape-font-specification:'Monster Twenty';fill:#ff7f11;stroke-width:0.897"
       d="M 52.537892,121.40925 V 101.2646 h 2.335596 v 20.14465 c 0,1.29236 -0.455441,2.39398 -1.366324,3.30486 -0.910882,0.91089 -2.012505,1.36633 -3.304868,1.36633 -1.292363,0 -2.393985,-0.45544 -3.304867,-1.36633 -0.910883,-0.91088 -1.366324,-2.0125 -1.366324,-3.30486 h 2.335596 c 0,0.64618 0.225774,1.19894 0.677323,1.65827 0.459333,0.45155 1.012091,0.67732 1.658272,0.67732 0.646182,0 1.195047,-0.22577 1.646595,-0.67732 0.459334,-0.45933 0.689001,-1.01209 0.689001,-1.65827 z m 3.503394,0 V 101.2646 h 2.335595 v 20.14465 c 0,0.64618 0.225774,1.19894 0.677323,1.65827 0.459334,0.45155 1.012092,0.67732 1.658273,0.67732 0.646181,0 1.195046,-0.22577 1.646595,-0.67732 0.459334,-0.45933 0.689001,-1.01209 0.689001,-1.65827 V 101.2646 h 2.335595 v 20.14465 c 0,1.29236 -0.455441,2.39398 -1.366323,3.30486 -0.910883,0.91089 -2.012505,1.36633 -3.304868,1.36633 -1.292363,0 -2.393986,-0.45544 -3.304868,-1.36633 -0.910882,-0.91088 -1.366323,-2.0125 -1.366323,-3.30486 z m 16.489306,0 -1.599883,-14.4458 -1.599883,14.4458 z m 0.618933,2.33559 h -4.437632 l -0.630611,2.3356 h -2.417341 l 4.379242,-24.81584 h 1.775052 l 4.379242,24.81584 H 73.780136 Z M 78.8367,107.33715 v 18.74329 H 76.501104 V 101.2646 h 1.961901 l 5.044886,18.74329 V 101.2646 h 2.335596 v 24.81584 h -1.9619 z m 10.51018,0.93423 h 4.671191 v 3.39394 H 89.34688 v 12.07952 h 5.838989 v 2.3356 H 87.011284 V 101.2646 h 8.174585 v 2.33559 H 89.34688 Z m 14.99453,13.13787 c 0,1.29236 -0.45544,2.39398 -1.36633,3.30486 -0.91088,0.91089 -2.0125,1.36633 -3.304865,1.36633 -1.292363,0 -2.393986,-0.45544 -3.304868,-1.36633 -0.910883,-0.91088 -1.366324,-2.0125 -1.366324,-3.30486 h 2.335596 c 0,0.64618 0.225774,1.19894 0.677323,1.65827 0.459334,0.45155 1.012092,0.67732 1.658273,0.67732 0.646185,0 1.195045,-0.22577 1.646595,-0.67732 0.45933,-0.45933 0.689,-1.01209 0.689,-1.65827 0,-0.77853 -1.26303,-5.20738 -3.503393,-8.036 -1.590187,-2.00772 -3.503394,-4.58851 -3.503394,-6.37913 0,-1.29236 0.455441,-3.45232 1.366324,-4.3632 0.910882,-0.91088 2.012505,-1.36632 3.304868,-1.36632 1.292365,0 2.393985,0.45544 3.304865,1.36632 0.91089,0.91088 1.36633,2.01251 1.36633,3.30487 h -2.3356 c 0,-0.64618 -0.22967,-1.19504 -0.689,-1.6466 -0.45155,-0.45933 -1.00041,-0.689 -1.646595,-0.689 -0.646181,0 -1.198939,0.22967 -1.658273,0.689 -0.451549,0.45156 -0.632832,2.06028 -0.677323,2.70493 -0.06349,0.91988 1.703495,3.54634 3.376421,5.48566 1.70074,1.97156 3.63037,7.2167 3.63037,8.92947 z"
       id="text1-7"
       aria-label="JUANES"
       sodipodi:nodetypes="sccsssscccssssccscsssccssssscccccccccccccccccccccccccccccccccccccsssscccsssssssscccsssss" />
    <text
       xml:space="preserve"
       style="font-style:normal;font-variant:normal;font-weight:normal;font-stretch:normal;font-size:15.7404px;font-family:'Jan Hand';-inkscape-font-specification:'Jan Hand';text-align:start;writing-mode:lr-tb;direction:ltr;text-anchor:start;fill:#5f5fb4;stroke-width:0.590265"
       x="66.822876"
       y="139.82658"
       id="text1-2-6"><tspan
         sodipodi:role="line"
         style="font-style:normal;font-variant:normal;font-weight:normal;font-stretch:normal;font-family:'Jan Hand';-inkscape-font-specification:'Jan Hand';fill:#ff7f11;fill-opacity:1;stroke-width:0.590265"
         x="66.822876"
         y="139.82658"
         id="tspan1">by</tspan></text>
  </g>
</svg>
